<?xml version="1.0" encoding="utf-8"?>
<!-- Generator: Fusion 360, Shaper Origin Export Add-In, Version 1.7.0  -->
<svg xmlns="http://www.w3.org/2000/svg" xmlns:xlink="http://www.w3.org/1999/xlink" xmlns:shaper="http://www.shapertools.com/namespaces/shaper" shaper:fusionaddin="version:1.7.0" width="29.2601992cm" height="19.6255943cm" version="1.1" x="0cm" y="0cm" viewBox="0 0 29.2601992 19.6255943" enable-background="new 0 0 29.2601992 19.6255943" xml:space="preserve"><path d="M0.9059356,0.7218632 A0.8,0.8 205 0,0 0.8339682,1.1290174 A1.425,1.425 355.0478014 0,1 0.6151569,2.0191922 A1.75,1.75 32.5720279 0,1 -0.0506763,2.6288849 A0.325,0.325 242.4683063 0,0 -0.0533357,2.6302869 A0.375,0.375 61.9383066 0,1 -0.2327348,2.6743593 L-1.8823984,2.6612019 A0.975,0.975 90.4569703 0,1 -2.8062582,1.9737733 A2.45,2.45 162.8476663 0,1 -2.8861117,0.8746669 A0.4500002,0.4500002 182.6656108 0,1 -2.4480716,0.4457411 A0.6,0.6 268.5390293 0,1 -2.3462628,0.4518158 A0.135,0.135 98.2901076 0,0 -2.2493649,0.428812 L-2.2086044,0.4002712 A0.09,0.09 55 0,0 -2.1865026,0.2749256 L-2.1977718,0.2588315 -14.1977718,0.2588315 -15.9482906,-2.2411685 -3.9482906,-2.2411685 -4.5500644,-3.1005906 A1.4,1.4 145 0,1 -3.7719519,-5.2541752 A0.95,0.95 74.7306284 0,0 -3.3999438,-5.4527458 A0.3,0.3 229.0845311 0,1 -3.2296071,-5.5249012 L-3.0091537,-5.5441884 A0.35,0.35 265 0,1 -2.7056858,-5.4145886 A0.1,0.1 141.2510114 0,0 -2.6189806,-5.3775601 L-2.4801014,-5.3897105 -10.1935527,-14.5822438 -7.1532297,-14.8482376 0.5602216,-5.6557043 0.7084037,-5.6686686 A3.4,3.4 265 0,1 3.4216006,-4.6729978 A0.95,0.95 313.4084802 0,1 3.6297577,-3.5813612 L3.2797166,-2.8306956 A0.4,0.4 25 0,1 2.7481462,-2.6372198 L2.6575154,-2.6794817 A0.15,0.15 295 0,0 2.4581765,-2.6069282 L2.4362151,-2.5598319 13.3119086,2.5115872 12.2553629,4.7773567 1.3796695,-0.2940625 0.9059356,0.7218632z" transform="matrix(1,0,0,-1,15.9482906,4.7773567)" fill="rgb(0,0,0)" shaper:cutDepth="0.1cm" stroke-linecap="round" stroke-linejoin="round" /><path d="M-3.6730312,-0.9911685 a0.1,0.1 0 1,1 0.2,0 a0.1,0.1 0 1,1 -0.2,0z" transform="matrix(1,0,0,-1,15.9482906,4.7773567)" fill="rgb(255,255,255)" stroke="rgb(0,0,0)" stroke-width="0.0010cm" stroke-linecap="round" stroke-linejoin="round" shaper:cutDepth="0.1cm" /><path d="M2.2610962,-1.2156381 a0.1,0.1 0 1,1 0.2,0 a0.1,0.1 0 1,1 -0.2,0z" transform="matrix(1,0,0,-1,15.9482906,4.7773567)" fill="rgb(255,255,255)" stroke="rgb(0,0,0)" stroke-width="0.0010cm" stroke-linecap="round" stroke-linejoin="round" shaper:cutDepth="0.1cm" /><path d="M-1.3813337,-5.9057296 a0.1,0.1 0 1,1 0.2,0 a0.1,0.1 0 1,1 -0.2,0z" transform="matrix(1,0,0,-1,15.9482906,4.7773567)" fill="rgb(255,255,255)" stroke="rgb(0,0,0)" stroke-width="0.0010cm" stroke-linecap="round" stroke-linejoin="round" shaper:cutDepth="0.1cm" /><path d="M-0.8069222,-1.7742722 a0.7,0.7 0 1,1 1.4,0 a0.7,0.7 0 1,1 -1.4,0z" transform="matrix(1,0,0,-1,15.9482906,4.7773567)" fill="rgb(255,255,255)" stroke="rgb(0,0,0)" stroke-width="0.0010cm" stroke-linecap="round" stroke-linejoin="round" shaper:cutDepth="0.1cm" /><path d="M1.9168657,-4.7002304 a0.1525,0.1525 0 1,1 0.305,0 a0.1525,0.1525 0 1,1 -0.305,0z" transform="matrix(1,0,0,-1,15.9482906,4.7773567)" fill="rgb(255,255,255)" stroke="rgb(0,0,0)" stroke-width="0.0010cm" stroke-linecap="round" stroke-linejoin="round" shaper:cutDepth="0.1cm" /><path d="M-3.169244,-3.2413931 a0.1525,0.1525 0 1,1 0.305,0 a0.1525,0.1525 0 1,1 -0.305,0z" transform="matrix(1,0,0,-1,15.9482906,4.7773567)" fill="rgb(255,255,255)" stroke="rgb(0,0,0)" stroke-width="0.0010cm" stroke-linecap="round" stroke-linejoin="round" shaper:cutDepth="0.1cm" /><path d="M-1.1983093,1.0727034 a0.1525,0.1525 0 1,1 0.305,0 a0.1525,0.1525 0 1,1 -0.305,0z" transform="matrix(1,0,0,-1,15.9482906,4.7773567)" fill="rgb(255,255,255)" stroke="rgb(0,0,0)" stroke-width="0.0010cm" stroke-linecap="round" stroke-linejoin="round" shaper:cutDepth="0.1cm" /><path d="M1.5048781,-3.81672 a0.1525,0.1525 0 1,1 0.305,0 a0.1525,0.1525 0 1,1 -0.305,0z" transform="matrix(1,0,0,-1,15.9482906,4.7773567)" fill="rgb(255,255,255)" stroke="rgb(0,0,0)" stroke-width="0.0010cm" stroke-linecap="round" stroke-linejoin="round" shaper:cutDepth="0.1cm" /><path d="M-2.4224687,-3.868012 a0.1525,0.1525 0 1,1 0.305,0 a0.1525,0.1525 0 1,1 -0.305,0z" transform="matrix(1,0,0,-1,15.9482906,4.7773567)" fill="rgb(255,255,255)" stroke="rgb(0,0,0)" stroke-width="0.0010cm" stroke-linecap="round" stroke-linejoin="round" shaper:cutDepth="0.1cm" /><path d="M-1.1983093,2.0475493 a0.1525,0.1525 0 1,1 0.305,0 a0.1525,0.1525 0 1,1 -0.305,0z" transform="matrix(1,0,0,-1,15.9482906,4.7773567)" fill="rgb(255,255,255)" stroke="rgb(0,0,0)" stroke-width="0.0010cm" stroke-linecap="round" stroke-linejoin="round" shaper:cutDepth="0.1cm" /></svg>