<?xml version="1.0" encoding="utf-8"?>
<!-- Generator: Fusion 360, Shaper Origin Export Add-In, Version 1.7.0  -->
<svg xmlns="http://www.w3.org/2000/svg" xmlns:xlink="http://www.w3.org/1999/xlink" xmlns:shaper="http://www.shapertools.com/namespaces/shaper" shaper:fusionaddin="version:1.7.0" width="28.3070453cm" height="20.3722382cm" version="1.1" x="0cm" y="0cm" viewBox="0 0 28.3070453 20.3722382" enable-background="new 0 0 28.3070453 20.3722382" xml:space="preserve"><path d="M0.8509794,0.7663062 A0.8,0.8 205 0,0 0.779012,1.1734605 A1.425,1.425 355.0478014 0,1 0.5602008,2.0636352 A1.75,1.75 32.5720279 0,1 -0.1056324,2.673328 A0.325,0.325 242.4683063 0,0 -0.1082919,2.6747299 A0.375,0.375 61.9383066 0,1 -0.2876909,2.7188024 L-1.9373546,2.705645 A0.975,0.975 90.4569703 0,1 -2.8612144,2.0182164 A2.45,2.45 162.8476663 0,1 -2.9410679,0.91911 A0.4500002,0.4500002 182.6656108 0,1 -2.5030277,0.4901842 A0.6,0.6 268.5390293 0,1 -2.4012189,0.4962589 A0.135,0.135 98.2901076 0,0 -2.3043211,0.4732551 L-2.2635605,0.4447142 A0.09,0.09 55 0,0 -2.2414587,0.3193687 L-2.2527279,0.3032746 -15.5032468,0.3032746 -15.5032468,-2.1967254 -4.0032468,-2.1967254 -4.6050206,-3.0561475 A1.4,1.4 145 0,1 -3.8269081,-5.2097322 A0.95,0.95 74.7306284 0,0 -3.4549,-5.4083027 A0.3,0.3 229.0845311 0,1 -3.2845633,-5.4804581 L-3.0641099,-5.4997453 A0.35,0.35 265 0,1 -2.7606419,-5.3701456 A0.1,0.1 141.2510114 0,0 -2.6739368,-5.3331171 L-2.5350575,-5.3452674 -9.927115,-14.1547785 -8.0120039,-15.7617476 0.5052654,-5.6112612 0.6534475,-5.6242255 A3.4,3.4 265 0,1 3.3666444,-4.6285548 A0.95,0.95 313.4084802 0,1 3.5748015,-3.5369181 L3.2247604,-2.7862526 A0.4,0.4 25 0,1 2.69319,-2.5927768 L2.6025592,-2.6350386 A0.15,0.15 295 0,0 2.4032203,-2.5624852 L2.381259,-2.5153888 12.8037985,2.3447212 11.7472529,4.6104906 1.3247133,-0.2496194 0.8509794,0.7663062z" transform="matrix(1,0,0,-1,15.5032468,4.6104906)" fill="rgb(0,0,0)" shaper:cutDepth="0.1cm" stroke-linecap="round" stroke-linejoin="round" /><path d="M-3.7279874,-0.9467254 a0.1,0.1 0 1,1 0.2,0 a0.1,0.1 0 1,1 -0.2,0z" transform="matrix(1,0,0,-1,15.5032468,4.6104906)" fill="rgb(255,255,255)" stroke="rgb(0,0,0)" stroke-width="0.0010cm" stroke-linecap="round" stroke-linejoin="round" shaper:cutDepth="0.1cm" /><path d="M2.20614,-1.171195 a0.1,0.1 0 1,1 0.2,0 a0.1,0.1 0 1,1 -0.2,0z" transform="matrix(1,0,0,-1,15.5032468,4.6104906)" fill="rgb(255,255,255)" stroke="rgb(0,0,0)" stroke-width="0.0010cm" stroke-linecap="round" stroke-linejoin="round" shaper:cutDepth="0.1cm" /><path d="M-1.4362898,-5.8612866 a0.1,0.1 0 1,1 0.2,0 a0.1,0.1 0 1,1 -0.2,0z" transform="matrix(1,0,0,-1,15.5032468,4.6104906)" fill="rgb(255,255,255)" stroke="rgb(0,0,0)" stroke-width="0.0010cm" stroke-linecap="round" stroke-linejoin="round" shaper:cutDepth="0.1cm" /><path d="M-0.8618784,-1.7298291 a0.7,0.7 0 1,1 1.4,0 a0.7,0.7 0 1,1 -1.4,0z" transform="matrix(1,0,0,-1,15.5032468,4.6104906)" fill="rgb(255,255,255)" stroke="rgb(0,0,0)" stroke-width="0.0010cm" stroke-linecap="round" stroke-linejoin="round" shaper:cutDepth="0.1cm" /><path d="M1.8619096,-4.6557874 a0.1525,0.1525 0 1,1 0.305,0 a0.1525,0.1525 0 1,1 -0.305,0z" transform="matrix(1,0,0,-1,15.5032468,4.6104906)" fill="rgb(255,255,255)" stroke="rgb(0,0,0)" stroke-width="0.0010cm" stroke-linecap="round" stroke-linejoin="round" shaper:cutDepth="0.1cm" /><path d="M-3.2242001,-3.19695 a0.1525,0.1525 0 1,1 0.305,0 a0.1525,0.1525 0 1,1 -0.305,0z" transform="matrix(1,0,0,-1,15.5032468,4.6104906)" fill="rgb(255,255,255)" stroke="rgb(0,0,0)" stroke-width="0.0010cm" stroke-linecap="round" stroke-linejoin="round" shaper:cutDepth="0.1cm" /><path d="M-1.2532655,1.1171465 a0.1525,0.1525 0 1,1 0.305,0 a0.1525,0.1525 0 1,1 -0.305,0z" transform="matrix(1,0,0,-1,15.5032468,4.6104906)" fill="rgb(255,255,255)" stroke="rgb(0,0,0)" stroke-width="0.0010cm" stroke-linecap="round" stroke-linejoin="round" shaper:cutDepth="0.1cm" /><path d="M1.4499219,-3.7722769 a0.1525,0.1525 0 1,1 0.305,0 a0.1525,0.1525 0 1,1 -0.305,0z" transform="matrix(1,0,0,-1,15.5032468,4.6104906)" fill="rgb(255,255,255)" stroke="rgb(0,0,0)" stroke-width="0.0010cm" stroke-linecap="round" stroke-linejoin="round" shaper:cutDepth="0.1cm" /><path d="M-2.4774248,-3.8235689 a0.1525,0.1525 0 1,1 0.305,0 a0.1525,0.1525 0 1,1 -0.305,0z" transform="matrix(1,0,0,-1,15.5032468,4.6104906)" fill="rgb(255,255,255)" stroke="rgb(0,0,0)" stroke-width="0.0010cm" stroke-linecap="round" stroke-linejoin="round" shaper:cutDepth="0.1cm" /><path d="M-1.2532655,2.0919924 a0.1525,0.1525 0 1,1 0.305,0 a0.1525,0.1525 0 1,1 -0.305,0z" transform="matrix(1,0,0,-1,15.5032468,4.6104906)" fill="rgb(255,255,255)" stroke="rgb(0,0,0)" stroke-width="0.0010cm" stroke-linecap="round" stroke-linejoin="round" shaper:cutDepth="0.1cm" /></svg>