<?xml version="1.0" encoding="utf-8"?>
<!-- Generator: Fusion 360, Shaper Origin Export Add-In, Version 1.7.0  -->
<svg xmlns="http://www.w3.org/2000/svg" xmlns:xlink="http://www.w3.org/1999/xlink" xmlns:shaper="http://www.shapertools.com/namespaces/shaper" shaper:fusionaddin="version:1.7.0" width="28.3070453cm" height="20.3722382cm" version="1.1" x="0cm" y="0cm" viewBox="0 0 28.3070453 20.3722382" enable-background="new 0 0 28.3070453 20.3722382" xml:space="preserve"><path d="M-1.6344822,3.6433617 A1.65,1.65 330.1512402 0,0 -3.762917,2.9691791 L-12.1093815,6.8611994 -13.1659272,4.59543 -4.6691374,0.6333118 A1.85,1.85 65 0,0 -3.8769045,-2.0153568 A1.425,1.425 148.3044879 0,1 -4.0240243,-2.337262 A1.75,1.75 162.5720279 0,1 -4.0630866,-3.2392228 A0.325,0.325 12.4683063 0,0 -4.0624512,-3.2421612 A0.375,0.375 191.9383066 0,1 -3.9808971,-3.4079181 L-2.9104346,-4.6631764 A0.975,0.975 220.4569703 0,1 -1.7899882,-4.9290234 A2.45,2.45 292.8476663 0,1 -1.6706898,-4.8749591 A2.1,2.1 115.9110713 0,0 0.8556523,-5.4139991 L7.6498753,-13.5110388 9.5649864,-11.9040697 3.7830705,-5.0134507 A1.65,1.65 220 0,0 3.9916039,-2.6845662 A1.4,1.4 309.7665127 0,1 4.4516337,-1.2584862 A1.05,1.05 194.4757995 0,0 5.4682997,0.0539834 L15.1411181,0.0539834 15.1411181,2.5539834 3.8150711,2.5539834 A4.7,4.7 270 0,0 1.032841,3.4659502 A3.4,3.4 53.7035065 0,1 -0.7014565,4.1142553 A0.95,0.95 83.4084802 0,1 -1.6344822,3.6433617z" transform="matrix(1,0,0,-1,13.1659272,6.8611994)" fill="rgb(0,0,0)" shaper:cutDepth="0.1cm" stroke-linecap="round" stroke-linejoin="round" /><path d="M0.8741612,-3.6105778 a0.1,0.1 0 1,1 0.2,0 a0.1,0.1 0 1,1 -0.2,0z" transform="matrix(1,0,0,-1,13.1659272,6.8611994)" fill="rgb(255,255,255)" stroke="rgb(0,0,0)" stroke-width="0.0010cm" stroke-linecap="round" stroke-linejoin="round" shaper:cutDepth="0.1cm" /><path d="M-2.7682687,1.0795138 a0.1,0.1 0 1,1 0.2,0 a0.1,0.1 0 1,1 -0.2,0z" transform="matrix(1,0,0,-1,13.1659272,6.8611994)" fill="rgb(255,255,255)" stroke="rgb(0,0,0)" stroke-width="0.0010cm" stroke-linecap="round" stroke-linejoin="round" shaper:cutDepth="0.1cm" /><path d="M3.1658587,1.3039834 a0.1,0.1 0 1,1 0.2,0 a0.1,0.1 0 1,1 -0.2,0z" transform="matrix(1,0,0,-1,13.1659272,6.8611994)" fill="rgb(255,255,255)" stroke="rgb(0,0,0)" stroke-width="0.0010cm" stroke-linecap="round" stroke-linejoin="round" shaper:cutDepth="0.1cm" /><path d="M-1.3539184,-0.4520149 a0.7,0.7 0 1,1 1.4,0 a0.7,0.7 0 1,1 -1.4,0z" transform="matrix(1,0,0,-1,13.1659272,6.8611994)" fill="rgb(255,255,255)" stroke="rgb(0,0,0)" stroke-width="0.0010cm" stroke-linecap="round" stroke-linejoin="round" shaper:cutDepth="0.1cm" /><path d="M0.0361047,3.0958881 a0.1525,0.1525 0 1,1 0.305,0 a0.1525,0.1525 0 1,1 -0.305,0z" transform="matrix(1,0,0,-1,13.1659272,6.8611994)" fill="rgb(255,255,255)" stroke="rgb(0,0,0)" stroke-width="0.0010cm" stroke-linecap="round" stroke-linejoin="round" shaper:cutDepth="0.1cm" /><path d="M2.1878587,-1.7380205 a0.1525,0.1525 0 1,1 0.305,0 a0.1525,0.1525 0 1,1 -0.305,0z" transform="matrix(1,0,0,-1,13.1659272,6.8611994)" fill="rgb(255,255,255)" stroke="rgb(0,0,0)" stroke-width="0.0010cm" stroke-linecap="round" stroke-linejoin="round" shaper:cutDepth="0.1cm" /><path d="M-2.3838233,-3.0012447 a0.1525,0.1525 0 1,1 0.305,0 a0.1525,0.1525 0 1,1 -0.305,0z" transform="matrix(1,0,0,-1,13.1659272,6.8611994)" fill="rgb(255,255,255)" stroke="rgb(0,0,0)" stroke-width="0.0010cm" stroke-linecap="round" stroke-linejoin="round" shaper:cutDepth="0.1cm" /><path d="M-0.375883,2.2123777 a0.1525,0.1525 0 1,1 0.305,0 a0.1525,0.1525 0 1,1 -0.305,0z" transform="matrix(1,0,0,-1,13.1659272,6.8611994)" fill="rgb(255,255,255)" stroke="rgb(0,0,0)" stroke-width="0.0010cm" stroke-linecap="round" stroke-linejoin="round" shaper:cutDepth="0.1cm" /><path d="M2.1878587,-0.7631746 a0.1525,0.1525 0 1,1 0.305,0 a0.1525,0.1525 0 1,1 -0.305,0z" transform="matrix(1,0,0,-1,13.1659272,6.8611994)" fill="rgb(255,255,255)" stroke="rgb(0,0,0)" stroke-width="0.0010cm" stroke-linecap="round" stroke-linejoin="round" shaper:cutDepth="0.1cm" /><path d="M-3.1305986,-3.6278636 a0.1525,0.1525 0 1,1 0.305,0 a0.1525,0.1525 0 1,1 -0.305,0z" transform="matrix(1,0,0,-1,13.1659272,6.8611994)" fill="rgb(255,255,255)" stroke="rgb(0,0,0)" stroke-width="0.0010cm" stroke-linecap="round" stroke-linejoin="round" shaper:cutDepth="0.1cm" /></svg>